<?xml version="1.0" encoding="UTF-8" standalone="no"?>
<!DOCTYPE svg PUBLIC "-//W3C//DTD SVG 1.1//EN"
 "http://www.w3.org/Graphics/SVG/1.1/DTD/svg11.dtd">
<!-- Generated by graphviz version 2.40.1 (20161225.0304)
 -->
<!-- Title: %3 Pages: 1 -->
<svg width="170pt" height="44pt"
 viewBox="0.00 0.00 170.00 44.00" xmlns="http://www.w3.org/2000/svg" xmlns:xlink="http://www.w3.org/1999/xlink">
<g id="graph0" class="graph" transform="scale(1 1) rotate(0) translate(4 40)">
<title>%3</title>
<polygon fill="#ffffff" stroke="transparent" points="-4,4 -4,-40 166,-40 166,4 -4,4"/>
<!-- main -->
<g id="node1" class="node">
<title>main</title>
<polygon fill="none" stroke="#0000ff" points="51,-36 0,-36 0,0 57,0 57,-30 51,-36"/>
<polyline fill="none" stroke="#0000ff" points="51,-36 51,-30 "/>
<polyline fill="none" stroke="#0000ff" points="57,-30 51,-30 "/>
<text text-anchor="middle" x="28.5" y="-14.3" font-family="Times,serif" font-size="14.00" fill="#000000">main.js</text>
</g>
<!-- lib -->
<g id="node2" class="node">
<title>lib</title>
<polygon fill="none" stroke="#ff0000" points="156,-36 108,-36 108,0 162,0 162,-30 156,-36"/>
<polyline fill="none" stroke="#ff0000" points="156,-36 156,-30 "/>
<polyline fill="none" stroke="#ff0000" points="162,-30 156,-30 "/>
<text text-anchor="middle" x="135" y="-14.3" font-family="Times,serif" font-size="14.00" fill="#000000">lib.mjs</text>
</g>
<!-- main&#45;&gt;lib -->
<g id="edge1" class="edge">
<title>main&#45;&gt;lib</title>
<path fill="none" stroke="#0000ff" stroke-width="3" d="M57.04,-18C69.4862,-18 84.2464,-18 97.5574,-18"/>
<polygon fill="#0000ff" stroke="#0000ff" stroke-width="3" points="97.85,-21.5001 107.85,-18 97.85,-14.5001 97.85,-21.5001"/>
<text text-anchor="middle" x="82.5" y="-21.8" font-family="Times,serif" font-size="14.00" fill="#000000">lib</text>
</g>
</g>
</svg>
