<?xml version="1.0" encoding="UTF-8" standalone="no"?>
<!DOCTYPE svg PUBLIC "-//W3C//DTD SVG 1.1//EN"
 "http://www.w3.org/Graphics/SVG/1.1/DTD/svg11.dtd">
<!-- Generated by graphviz version 2.40.1 (20161225.0304)
 -->
<!-- Title: %3 Pages: 1 -->
<svg width="181pt" height="44pt"
 viewBox="0.00 0.00 181.00 44.00" xmlns="http://www.w3.org/2000/svg" xmlns:xlink="http://www.w3.org/1999/xlink">
<g id="graph0" class="graph" transform="scale(1 1) rotate(0) translate(4 40)">
<title>%3</title>
<!-- main -->
<g id="node1" class="node">
<title>main</title>
<polygon fill="#ffdddd" stroke="#ff0000" points="62,-36 0,-36 0,0 68,0 68,-30 62,-36"/>
<polyline fill="none" stroke="#ff0000" points="62,-36 62,-30 "/>
<polyline fill="none" stroke="#ff0000" points="68,-30 62,-30 "/>
<text text-anchor="middle" x="34" y="-14.3" font-family="Times,serif" font-size="14.00" fill="#000000">main.mjs</text>
</g>
<!-- lib -->
<g id="node2" class="node">
<title>lib</title>
<polygon fill="#ffdddd" stroke="#ff0000" points="167,-36 119,-36 119,0 173,0 173,-30 167,-36"/>
<polyline fill="none" stroke="#ff0000" points="167,-36 167,-30 "/>
<polyline fill="none" stroke="#ff0000" points="173,-30 167,-30 "/>
<text text-anchor="middle" x="146" y="-14.3" font-family="Times,serif" font-size="14.00" fill="#000000">lib.mjs</text>
</g>
<!-- main&#45;&gt;lib -->
<g id="edge1" class="edge">
<title>main&#45;&gt;lib</title>
<path fill="none" stroke="#ff0000" stroke-width="3" d="M68.2123,-18C81.004,-18 95.5925,-18 108.6529,-18"/>
<polygon fill="#ff0000" stroke="#ff0000" stroke-width="3" points="108.736,-21.5001 118.736,-18 108.736,-14.5001 108.736,-21.5001"/>
<text text-anchor="middle" x="93.5" y="-21.8" font-family="Times,serif" font-size="14.00" fill="#000000">lib</text>
</g>
</g>
</svg>
