<?xml version="1.0" encoding="UTF-8" standalone="no"?>
<!DOCTYPE svg PUBLIC "-//W3C//DTD SVG 1.1//EN"
 "http://www.w3.org/Graphics/SVG/1.1/DTD/svg11.dtd">
<!-- Generated by graphviz version 2.40.1 (20161225.0304)
 -->
<!-- Title: %3 Pages: 1 -->
<svg width="353pt" height="131pt"
 viewBox="0.00 0.00 353.00 131.00" xmlns="http://www.w3.org/2000/svg" xmlns:xlink="http://www.w3.org/1999/xlink">
<g id="graph0" class="graph" transform="scale(1 1) rotate(0) translate(4 127)">
<title>%3</title>
<!-- a -->
<g id="node1" class="node">
<title>a</title>
<polygon fill="#ffdddd" stroke="#ff0000" points="48,-68 0,-68 0,-32 54,-32 54,-62 48,-68"/>
<polyline fill="none" stroke="#ff0000" points="48,-68 48,-62 "/>
<polyline fill="none" stroke="#ff0000" points="54,-62 48,-62 "/>
<text text-anchor="middle" x="27" y="-46.3" font-family="Times,serif" font-size="14.00" fill="#000000">a.mjs</text>
</g>
<!-- b -->
<g id="node2" class="node">
<title>b</title>
<polygon fill="#ffdddd" stroke="#ff0000" points="145,-68 97,-68 97,-32 151,-32 151,-62 145,-68"/>
<polyline fill="none" stroke="#ff0000" points="145,-68 145,-62 "/>
<polyline fill="none" stroke="#ff0000" points="151,-62 145,-62 "/>
<text text-anchor="middle" x="124" y="-46.3" font-family="Times,serif" font-size="14.00" fill="#000000">b.mjs</text>
</g>
<!-- a&#45;&gt;b -->
<g id="edge1" class="edge">
<title>a&#45;&gt;b</title>
<path fill="none" stroke="#ff0000" stroke-width="3" d="M54.0199,-50C64.1304,-50 75.8016,-50 86.6794,-50"/>
<polygon fill="#ff0000" stroke="#ff0000" stroke-width="3" points="86.7886,-53.5001 96.7886,-50 86.7885,-46.5001 86.7886,-53.5001"/>
<text text-anchor="middle" x="75.5" y="-53.8" font-family="Times,serif" font-size="14.00" fill="#000000">b</text>
</g>
<!-- c -->
<g id="node3" class="node">
<title>c</title>
<polygon fill="#ddddff" stroke="#0000ff" points="242,-123 194,-123 194,-87 248,-87 248,-117 242,-123"/>
<polyline fill="none" stroke="#0000ff" points="242,-123 242,-117 "/>
<polyline fill="none" stroke="#0000ff" points="248,-117 242,-117 "/>
<text text-anchor="middle" x="221" y="-101.3" font-family="Times,serif" font-size="14.00" fill="#000000">c.js</text>
</g>
<!-- b&#45;&gt;c -->
<g id="edge3" class="edge">
<title>b&#45;&gt;c</title>
<path fill="none" stroke="#ff0000" d="M151.0199,-65.3206C161.5474,-71.2897 173.7669,-78.2183 185.0209,-84.5995"/>
<polygon fill="#ff0000" stroke="#ff0000" points="183.3633,-87.683 193.7886,-89.5708 186.816,-81.5938 183.3633,-87.683"/>
<text text-anchor="middle" x="172.5" y="-82.8" font-family="Times,serif" font-size="14.00" fill="#000000">c</text>
</g>
<!-- d -->
<g id="node4" class="node">
<title>d</title>
<polygon fill="#ddddff" stroke="#0000ff" points="242,-68 194,-68 194,-32 248,-32 248,-62 242,-68"/>
<polyline fill="none" stroke="#0000ff" points="242,-68 242,-62 "/>
<polyline fill="none" stroke="#0000ff" points="248,-62 242,-62 "/>
<text text-anchor="middle" x="221" y="-46.3" font-family="Times,serif" font-size="14.00" fill="#000000">d.js</text>
</g>
<!-- b&#45;&gt;d -->
<g id="edge2" class="edge">
<title>b&#45;&gt;d</title>
<path fill="none" stroke="#0000ff" d="M151.0199,-50C161.1304,-50 172.8016,-50 183.6794,-50"/>
<polygon fill="#0000ff" stroke="#0000ff" points="183.7886,-53.5001 193.7886,-50 183.7885,-46.5001 183.7886,-53.5001"/>
<text text-anchor="middle" x="172.5" y="-53.8" font-family="Times,serif" font-size="14.00" fill="#000000">d</text>
</g>
<!-- e -->
<g id="node5" class="node">
<title>e</title>
<polygon fill="#ddddff" stroke="#0000ff" points="339,-98 291,-98 291,-62 345,-62 345,-92 339,-98"/>
<polyline fill="none" stroke="#0000ff" points="339,-98 339,-92 "/>
<polyline fill="none" stroke="#0000ff" points="345,-92 339,-92 "/>
<text text-anchor="middle" x="318" y="-76.3" font-family="Times,serif" font-size="14.00" fill="#000000">e.js</text>
</g>
<!-- c&#45;&gt;e -->
<g id="edge6" class="edge">
<title>c&#45;&gt;e</title>
<path fill="none" stroke="#0000ff" d="M248.0199,-98.0361C258.2347,-95.4034 270.0425,-92.3602 281.0155,-89.5321"/>
<polygon fill="#0000ff" stroke="#0000ff" points="281.9786,-92.8983 290.7886,-87.0133 280.2315,-86.1198 281.9786,-92.8983"/>
<text text-anchor="middle" x="269.5" y="-96.8" font-family="Times,serif" font-size="14.00" fill="#000000">e</text>
</g>
<!-- d&#45;&gt;e -->
<g id="edge4" class="edge">
<title>d&#45;&gt;e</title>
<path fill="none" stroke="#ff0000" d="M248.0199,-58.3567C258.2347,-61.5159 270.0425,-65.1678 281.0155,-68.5615"/>
<polygon fill="#ff0000" stroke="#ff0000" points="280.2009,-71.9731 290.7886,-71.5841 282.2692,-65.2856 280.2009,-71.9731"/>
<text text-anchor="middle" x="269.5" y="-68.8" font-family="Times,serif" font-size="14.00" fill="#000000">e</text>
</g>
<!-- f -->
<g id="node6" class="node">
<title>f</title>
<polygon fill="#ffdddd" stroke="#ff0000" points="339,-36 291,-36 291,0 345,0 345,-30 339,-36"/>
<polyline fill="none" stroke="#ff0000" points="339,-36 339,-30 "/>
<polyline fill="none" stroke="#ff0000" points="345,-30 339,-30 "/>
<text text-anchor="middle" x="318" y="-14.3" font-family="Times,serif" font-size="14.00" fill="#000000">f.mjs</text>
</g>
<!-- d&#45;&gt;f -->
<g id="edge5" class="edge">
<title>d&#45;&gt;f</title>
<path fill="none" stroke="#0000ff" d="M248.0199,-41.0862C258.2347,-37.7164 270.0425,-33.821 281.0155,-30.2011"/>
<polygon fill="#0000ff" stroke="#0000ff" points="282.3885,-33.4337 290.7886,-26.977 280.1955,-26.7861 282.3885,-33.4337"/>
<text text-anchor="middle" x="269.5" y="-37.8" font-family="Times,serif" font-size="14.00" fill="#000000">f</text>
</g>
<!-- f&#45;&gt;b -->
<g id="edge7" class="edge">
<title>f&#45;&gt;b</title>
<path fill="none" stroke="#ff0000" stroke-width="3" d="M290.8828,-10.4975C265.413,-4.6871 226.4698,.9936 194,-8 180.3951,-11.7683 166.7797,-18.9629 155.2216,-26.3468"/>
<polygon fill="#ff0000" stroke="#ff0000" stroke-width="3" points="153.1782,-23.503 146.8184,-31.9767 157.0744,-29.3184 153.1782,-23.503"/>
<text text-anchor="middle" x="221" y="-11.8" font-family="Times,serif" font-size="14.00" fill="#000000">b</text>
</g>
</g>
</svg>
